<svg xmlns="http://www.w3.org/2000/svg" viewBox="0 0 64 64" fill="none">
  <!-- Background circle -->
  <circle cx="32" cy="32" r="32" fill="#219ebc"/>
  <!-- Open book -->
  <path d="M14 20 C14 20 20 18 32 22 C44 18 50 20 50 20 L50 46 C50 46 44 44 32 48 C20 44 14 46 14 46 Z" fill="white" opacity="0.95"/>
  <!-- Book spine -->
  <line x1="32" y1="22" x2="32" y2="48" stroke="#219ebc" stroke-width="1.5"/>
  <!-- Left page lines -->
  <line x1="18" y1="27" x2="30" y2="25" stroke="#219ebc" stroke-width="1.2" stroke-linecap="round" opacity="0.6"/>
  <line x1="18" y1="32" x2="30" y2="30" stroke="#219ebc" stroke-width="1.2" stroke-linecap="round" opacity="0.6"/>
  <line x1="18" y1="37" x2="30" y2="35" stroke="#219ebc" stroke-width="1.2" stroke-linecap="round" opacity="0.6"/>
  <!-- Right page lines -->
  <line x1="34" y1="25" x2="46" y2="27" stroke="#219ebc" stroke-width="1.2" stroke-linecap="round" opacity="0.6"/>
  <line x1="34" y1="30" x2="46" y2="32" stroke="#219ebc" stroke-width="1.2" stroke-linecap="round" opacity="0.6"/>
  <line x1="34" y1="35" x2="46" y2="37" stroke="#219ebc" stroke-width="1.2" stroke-linecap="round" opacity="0.6"/>
  <!-- Star sparkle top right -->
  <circle cx="50" cy="14" r="3.5" fill="#ffb703"/>
  <line x1="50" y1="9" x2="50" y2="11" stroke="#ffb703" stroke-width="1.5" stroke-linecap="round"/>
  <line x1="50" y1="17" x2="50" y2="19" stroke="#ffb703" stroke-width="1.5" stroke-linecap="round"/>
  <line x1="45" y1="14" x2="47" y2="14" stroke="#ffb703" stroke-width="1.5" stroke-linecap="round"/>
  <line x1="53" y1="14" x2="55" y2="14" stroke="#ffb703" stroke-width="1.5" stroke-linecap="round"/>
</svg>
